<?xml version="1.0" ?><svg style="enable-background:new 0 0 32 32;" version="1.1" viewBox="0 0 32 32" xml:space="preserve" xmlns="http://www.w3.org/2000/svg" xmlns:xlink="http://www.w3.org/1999/xlink"><style type="text/css">
	.st0{display:none;}
	.st1{fill:none;}
</style><g class="st0" id="grid"/><g id="Layer_2"><g><path fill="#fff" d="M26,29h-8c-4.41,0-8-3.59-8-8h2c0,3.31,2.69,6,6,6h6v-4h-2.58C18.98,23,17,21.02,17,18.58V15h5v-4h-5V5h-5    c0,2.97-2.17,5.44-5,5.92V15h5v4h-2v-2H5V9h1c2.21,0,4-1.79,4-4V3h9v6h5v8h-5v1.58c0,1.33,1.08,2.42,2.42,2.42H26V29z"/></g></g></svg>